<?xml version="1.0" encoding="UTF-8"?>
<svg width="16px" height="15px" viewBox="0 0 16 15" version="1.1" xmlns="http://www.w3.org/2000/svg" xmlns:xlink="http://www.w3.org/1999/xlink">
    <!-- Generator: Sketch 55.2 (78181) - https://sketchapp.com -->
    <title>Shape</title>
    <desc>Created with Sketch.</desc>
    <g id="Page-1" stroke="none" stroke-width="1" fill="none" fill-rule="evenodd">
        <path d="M2.82446764,0 L13.3468894,0 C14.3465344,0 15.1398747,0.789895616 15.1398747,1.78941545 L15.1398747,12.3120877 C15.1398747,13.3114823 14.3465971,14.1545511 13.3468894,14.1545511 L2.82446764,14.1545511 C1.82507307,14.1545511 0.985386221,13.3115449 0.985386221,12.3120877 L0.985386221,1.78941545 C0.985386221,0.789895616 1.82507307,0 2.82446764,0 L2.82446764,0 Z M11.3199165,1.565762 C10.9691858,1.565762 10.6931106,1.83194154 10.6931106,2.18248434 L10.6931106,3.70803758 C10.6931106,4.05858038 10.9691858,4.32150313 11.3199165,4.32150313 L12.92,4.32150313 C13.2707307,4.32150313 13.5741127,4.05858038 13.5741127,3.70803758 L13.5741127,2.18248434 C13.5741127,1.83194154 13.2707307,1.565762 12.92,1.565762 L11.3199165,1.565762 L11.3199165,1.565762 Z M13.5741127,5.94989562 L12.3181837,5.94989562 C12.4358664,6.3256785 12.4995616,6.74705637 12.4995616,7.16924843 C12.4995616,9.52390397 10.5293319,11.4348225 8.09920668,11.4348225 C5.66895616,11.4348225 3.69897704,9.52271399 3.69897704,7.16805846 C3.69897704,6.74586639 3.76254697,6.3256785 3.88048017,5.94989562 L2.55114823,5.94989562 L2.55114823,11.9390605 C2.55114823,12.2487056 2.83361169,12.526096 3.14306889,12.526096 L13.0012317,12.526096 C13.3109395,12.526096 13.5741127,12.2487056 13.5741127,11.9390605 L13.5741127,5.94989562 L13.5741127,5.94989562 Z M8.09920668,4.2651357 C6.52899791,4.2651357 5.2560334,5.49851775 5.2560334,7.02006263 C5.2560334,8.54160752 6.52899791,9.77498956 8.09920668,9.77498956 C9.66954071,9.77498956 10.94238,8.54160752 10.94238,7.02006263 C10.94238,5.49851775 9.66954071,4.2651357 8.09920668,4.2651357 Z" id="Shape" fill="#212121"></path>
    </g>
</svg>