<?xml version="1.0" encoding="UTF-8"?>
<svg width="15px" height="15px" viewBox="0 0 15 15" version="1.1" xmlns="http://www.w3.org/2000/svg" xmlns:xlink="http://www.w3.org/1999/xlink">
    <!-- Generator: Sketch 55.2 (78181) - https://sketchapp.com -->
    <title>Group</title>
    <desc>Created with Sketch.</desc>
    <g id="Page-1" stroke="none" stroke-width="1" fill="none" fill-rule="evenodd">
        <g id="Group" transform="translate(0.149791, 0.000000)" fill="#212121" fill-rule="nonzero">
            <path d="M14.3658664,14.3089353 L14.3658664,8.74265136 C14.3658664,5.86947808 12.807119,4.53651357 10.7852818,4.53651357 C9.15551148,4.53651357 8.41597077,5.45505219 7.97755741,6.09344468 L7.97755741,4.7891023 L4.90866388,4.7891023 L4.90866388,14.3089353 L7.97755741,14.3089353 L7.97755741,8.88263048 C7.97755741,8.6026096 8.01563674,8.32816284 8.09968685,8.12655532 C8.32371608,7.56645094 8.85538622,6.98962422 9.70672234,6.98962422 C10.8212317,6.98962422 11.2969729,7.84653445 11.2969729,9.10108559 L11.2969729,14.3089353 L14.3658664,14.3089353 Z" id="Shape"></path>
            <path d="M1.66340292,1.77635684e-14 C0.655240084,1.77635684e-14 -4.3298698e-14,0.707661795 -4.3298698e-14,1.64298539 C-4.3298698e-14,2.56152401 0.638455115,3.28597077 1.62419624,3.28597077 L1.64655532,3.28597077 C2.67150313,3.28597077 3.30995825,2.56152401 3.30995825,1.64298539 C3.28759916,0.702087683 2.67156576,1.77635684e-14 1.66340292,1.77635684e-14 Z" id="Shape"></path>
            <rect id="Rectangle-path" x="0.0234864301" y="4.7891023" width="3.06889353" height="9.51983299"></rect>
        </g>
    </g>
</svg>