<?xml version="1.0" encoding="UTF-8"?>
<svg width="19px" height="15px" viewBox="0 0 19 15" version="1.1" xmlns="http://www.w3.org/2000/svg" xmlns:xlink="http://www.w3.org/1999/xlink">
    <!-- Generator: Sketch 55.2 (78181) - https://sketchapp.com -->
    <title>Shape</title>
    <desc>Created with Sketch.</desc>
    <g id="Page-1" stroke="none" stroke-width="1" fill="none" fill-rule="evenodd">
        <path d="M19.0521921,1.7531524 C18.3822338,2.05096033 17.6612317,2.25181628 16.9047182,2.34169102 C17.6771399,1.87929019 18.2694363,1.14676409 18.5487683,0.273006263 C17.826263,0.7017119 17.0264718,1.01292276 16.1745094,1.18083507 C15.492714,0.454321503 14.5208768,0 13.4455115,0 C11.3809603,0 9.70691023,1.67392484 9.70691023,3.73897704 C9.70691023,4.03158664 9.73985386,4.31680585 9.80386221,4.59093946 C6.69638831,4.43480167 3.94108559,2.9465762 2.09699374,0.684425887 C1.7751357,1.23632568 1.59087683,1.87853862 1.59087683,2.56440501 C1.59087683,3.86141962 2.25087683,5.00599165 3.25409186,5.67632568 C2.64150313,5.65672234 2.06473904,5.48843424 1.56050104,5.20835073 C1.56012526,5.22388309 1.56012526,5.23979123 1.56012526,5.25563674 C1.56012526,7.0668476 2.84899791,8.57762004 4.55956159,8.9217119 C4.24584551,9.00682672 3.91553236,9.05273486 3.57444676,9.05273486 C3.33325678,9.05273486 3.09901879,9.0293737 2.87079332,8.9854071 C3.34691023,10.4706889 4.72753653,11.5520668 6.36338205,11.5819415 C5.08377871,12.5848434 3.4719833,13.182714 1.71995825,13.182714 C1.41845511,13.182714 1.12064718,13.1649269 0.828037578,13.130167 C2.48311065,14.1915031 4.44820459,14.8100418 6.55947808,14.8100418 C13.4369937,14.8100418 17.1973904,9.11298539 17.1973904,4.17212944 C17.1973904,4.01004175 17.194071,3.84845511 17.1870564,3.68793319 C17.9172651,3.16183716 18.5512735,2.50302714 19.0521921,1.7531524 Z" id="Shape" fill="#212121" fill-rule="nonzero"></path>
    </g>
</svg>