<?xml version="1.0" encoding="UTF-8"?>
<svg width="21px" height="21px" viewBox="0 0 21 21" version="1.1" xmlns="http://www.w3.org/2000/svg" xmlns:xlink="http://www.w3.org/1999/xlink">
    <!-- Generator: Sketch 55.2 (78181) - https://sketchapp.com -->
    <title>Group 2</title>
    <desc>Created with Sketch.</desc>
    <g id="Page-1" stroke="none" stroke-width="1" fill="none" fill-rule="evenodd">
        <g id="Group-2" transform="translate(0.146138, 0.647182)" fill="#212121" fill-rule="nonzero">
            <path d="M19.874739,15.868643 L19.874739,12.9396242 C19.874739,10.9273486 18.2769937,9.26939457 16.2659708,9.26939457 L3.60993737,9.26939457 C1.59757829,9.26939457 -4.4408921e-14,10.9273486 -4.4408921e-14,12.9396242 L-4.4408921e-14,15.868643 C-4.4408921e-14,17.879666 1.5976618,19.5407098 3.60993737,19.5407098 L16.2659708,19.5407098 C18.2769937,19.5407098 19.874739,17.8795825 19.874739,15.868643 Z M6.26304802,11.6075157 L5.09394572,11.6075157 L5.09394572,17.4530271 L3.92484342,17.4530271 L3.92484342,11.6075157 L2.75574113,11.6075157 L2.75574113,10.605428 L6.26304802,10.605428 L6.26304802,11.6075157 Z M9.60334029,17.4530271 L8.60125261,17.4530271 L8.60125261,16.8691441 C8.434238,17.0730689 8.2126096,17.2275574 8.01135699,17.3370355 C7.81002088,17.445261 7.60977035,17.496785 7.42037578,17.496785 C7.18672234,17.496785 6.9954071,17.4222129 6.87524008,17.2724008 C6.7577453,17.1192484 6.68058455,16.8975365 6.68058455,16.5959081 L6.68058455,12.3590814 L7.68267223,12.3590814 L7.68267223,16.2474322 C7.68267223,16.366263 7.72367432,16.4526931 7.7645929,16.5054697 C7.80818372,16.5595825 7.88542797,16.5853027 7.98112735,16.5853027 C8.0536952,16.5853027 8.15340292,16.5453027 8.26688935,16.4746555 C8.38037578,16.4026722 8.48935282,16.2838413 8.58371608,16.200334 L8.60133612,16.200334 L8.60133612,12.3589979 L9.6034238,12.3589979 L9.6034238,17.4530271 L9.60334029,17.4530271 Z M13.2776618,16.3807933 C13.2776618,16.7378706 13.1858873,17.0111065 13.0274739,17.2031733 C12.8717328,17.393904 12.634739,17.4882672 12.337119,17.4882672 C12.1384551,17.4882672 11.9510647,17.4519415 11.7979123,17.3787056 C11.6435073,17.3048017 11.5240919,17.1912317 11.3570772,17.0354906 L11.3570772,17.4530271 L10.3549896,17.4530271 L10.3549896,10.605428 L11.3570772,10.605428 L11.3570772,12.7858038 C11.5240919,12.6326514 11.6450939,12.513904 11.7962422,12.4339875 C11.9493946,12.3541545 12.1082255,12.313904 12.2653027,12.313904 C12.5847182,12.313904 12.8420877,12.4221294 13.0097704,12.6373278 C13.1800418,12.85119 13.2777453,13.1660125 13.2777453,13.5797912 L13.2777453,16.3807933 L13.2776618,16.3807933 Z M14.1706054,17.1450522 C13.9112317,16.8691441 13.7787056,16.4876827 13.7787056,16.0006681 L13.7787056,13.7316075 C13.7787056,13.2973695 13.9237578,12.9389562 14.2088518,12.6643841 C14.4952818,12.3872234 14.8615449,12.2506054 15.314238,12.2506054 C15.7755324,12.2506054 16.1482255,12.3779541 16.3970772,12.6327349 C16.645261,12.8894363 16.7848852,13.2551148 16.7848852,13.7322756 L16.7848852,15.0313152 L14.8642171,15.0313152 L14.8642171,15.9709395 C14.8642171,16.2375783 14.8753236,16.4210438 14.9413779,16.5253445 C15.0086848,16.6269729 15.1119833,16.6771608 15.2729854,16.6771608 C15.4405846,16.6771608 15.5458873,16.6335699 15.61119,16.5471399 C15.6764927,16.4607098 15.6992902,16.268643 15.6992902,15.9709395 L15.6992902,15.782881 L16.7848852,15.782881 L16.7848852,16.0005846 C16.7848852,16.5186639 16.6431733,16.9080585 16.3878079,17.1707724 C16.1363674,17.4314823 15.7497286,17.5615031 15.2468476,17.5615031 C14.7948225,17.5615031 14.4299791,17.4222129 14.1706054,17.1450522 Z" id="Shape"></path>
            <path d="M15.6993737,13.725595 C15.6993737,13.513737 15.6698121,13.3605846 15.600501,13.2728184 C15.531858,13.1784551 15.4203758,13.1335282 15.268643,13.1335282 C15.1076409,13.1335282 14.9736117,13.1783716 14.9029645,13.2728184 C14.8323173,13.3605846 14.7807933,13.514405 14.7807933,13.725595 L14.7807933,14.1962422 L15.6993737,14.1962422 L15.6993737,13.725595 L15.6993737,13.725595 Z" id="Shape"></path>
            <path d="M11.7931524,13.1151566 C11.7212526,13.1151566 11.6410856,13.1303549 11.5717745,13.1653445 C11.5024635,13.1969937 11.440501,13.2491858 11.3569937,13.3197495 L11.3569937,16.4639666 C11.440501,16.5458038 11.525595,16.6071816 11.6028392,16.6421712 C11.6813361,16.6771608 11.7650104,16.6962839 11.8501879,16.6962839 C11.9736117,16.6962839 12.0551148,16.6612944 12.1132359,16.5893946 C12.1712735,16.5187474 12.1921503,16.4039248 12.1921503,16.2415866 L12.1921503,13.634572 C12.1921503,13.4629645 12.1679332,13.3342797 12.097286,13.2451775 C12.0232985,13.1586639 11.9285177,13.1151566 11.7931524,13.1151566 Z" id="Shape"></path>
            <polygon id="Shape" points="6.51356994 7.51565762 6.51356994 4.417119 8.03323591 1.95399252e-14 6.7336952 1.95399252e-14 5.94371608 3.00626305 5.86246347 3.00626305 5.03223382 1.95399252e-14 3.7439666 1.95399252e-14 5.26096033 4.55632568 5.26096033 7.51565762"></polygon>
            <path d="M12.3590814,2.00417537 L12.3590814,6.62872651 C12.3590814,6.96267223 12.4187056,7.21018789 12.5499791,7.37386221 C12.6839248,7.54020877 12.8774113,7.6239666 13.1401253,7.6239666 C13.3539875,7.6239666 13.5703549,7.56325678 13.7960752,7.445762 C14.0237996,7.32826722 14.2797495,7.15473904 14.4467641,6.92901879 L14.4467641,7.51565762 L15.6158664,7.51565762 L15.6158664,2.00417537 L14.4467641,2.00417537 L14.4467641,6.2023382 C14.3632568,6.32509395 14.2244676,6.42413361 14.0984551,6.5039666 C13.9697704,6.58121086 13.8645511,6.62146138 13.7820459,6.62146138 C13.6751566,6.62146138 13.5807098,6.59048017 13.5345303,6.53102296 C13.4870146,6.47298539 13.4447599,6.37853862 13.4447599,6.24592902 L13.4447599,2.00417537 L12.3590814,2.00417537 Z" id="Shape"></path>
            <path d="M8.10020877,3.25678497 L8.10020877,6.13569937 C8.10020877,6.60759916 8.26271399,6.98379958 8.56041754,7.26496868 C8.85870564,7.54212944 9.26304802,7.68141962 9.75933194,7.68141962 C10.2754071,7.68141962 10.6922756,7.54613779 10.988643,7.27682672 C11.2810021,7.00751566 11.440501,6.63532359 11.440501,6.15816284 L11.440501,3.28718163 C11.440501,2.86212944 11.2815866,2.51365344 10.9826305,2.2456785 C10.6810021,1.97770355 10.2923591,1.84242171 9.82179541,1.84242171 C9.3063048,1.84242171 8.89286013,1.97244259 8.58597077,2.22521921 C8.28041754,2.48325678 8.12634656,2.83924843 8.12634656,3.25678497 L8.10020877,3.25678497 L8.10020877,3.25678497 Z M9.26931106,3.21327766 C9.26931106,3.0925261 9.32442589,2.99281837 9.41093946,2.91958246 C9.49870564,2.84367432 9.61736952,2.80609603 9.75532359,2.80609603 C9.90647182,2.80609603 10.0331524,2.84375783 10.126263,2.91958246 C10.2192902,2.99281837 10.2714823,3.09185804 10.2714823,3.21327766 L10.2714823,6.24267223 C10.2714823,6.39048017 10.222547,6.50797495 10.1321921,6.59448852 C10.0417537,6.67832985 9.9176618,6.71924843 9.76325678,6.71924843 C9.61411273,6.71924843 9.48434238,6.67832985 9.40450939,6.59448852 C9.32334029,6.5119833 9.26947808,6.39448852 9.26947808,6.24267223 L9.26947808,3.21327766 L9.26931106,3.21327766 Z" id="Shape"></path>
        </g>
    </g>
</svg>